<?xml version="1.0" encoding="UTF-8"?>
<svg version="1.1" viewBox="0 0 24 24" xmlns="http://www.w3.org/2000/svg" xmlns:xlink="http://www.w3.org/1999/xlink">
    <!--Generated by IJSVG (https://github.com/iconjar/IJSVG)-->
    <g fill="#FFF">
        <path opacity="0" d="M0,0h24v24h-24Z"></path>
        <path d="M20.47,7.5l0.73,-0.73l6.1418e-08,-6.14181e-08c0.405929,-0.405929 0.405929,-1.06407 -1.4311e-07,-1.47c-0.405929,-0.405929 -1.06407,-0.405929 -1.47,1.4311e-07l-0.73,0.7l-0.73,-0.73l-1.3484e-08,-1.32143e-08c-0.414214,-0.405929 -1.07907,-0.399214 -1.485,0.015c-0.405929,0.414214 -0.399214,1.07907 0.015,1.485l0.73,0.73l-0.73,0.73l-4.38239e-09,4.38239e-09c-0.405929,0.405929 -0.405929,1.06407 8.76479e-09,1.47c0.405929,0.405929 1.06407,0.405929 1.47,-8.76479e-09l0.73,-0.7l0.73,0.73l-5.20831e-08,-5.10414e-08c0.414214,0.405929 1.07907,0.399214 1.485,-0.0149999c0.405929,-0.414214 0.399214,-1.07907 -0.0149999,-1.485Z"></path>
        <path d="M10,11l-1.74846e-07,-3.55271e-15c2.20914,9.65645e-08 4,-1.79086 4,-4c9.65645e-08,-2.20914 -1.79086,-4 -4,-4c-2.20914,-9.65645e-08 -4,1.79086 -4,4l4.61853e-14,-6.03983e-07c-3.33571e-07,2.20914 1.79086,4 4,4Zm0,-6l-8.74228e-08,1.77636e-15c1.10457,-4.82823e-08 2,0.89543 2,2c4.82823e-08,1.10457 -0.89543,2 -2,2c-1.10457,4.82823e-08 -2,-0.89543 -2,-2l2.30926e-14,3.01992e-07c-1.66785e-07,-1.10457 0.89543,-2 2,-2Z"></path>
        <path d="M10,13l-3.0598e-07,7.10543e-15c-3.86599,1.68988e-07 -7,3.13401 -7,7c0,0 0,3.55271e-15 0,3.55271e-15l1.06581e-14,1.50996e-07c8.33927e-08,0.552285 0.447715,1 1,1c0.552285,-8.33927e-08 1,-0.447715 1,-1l5.68434e-14,7.54979e-07c-4.16963e-07,-2.76142 2.23858,-5 5,-5c2.76142,-4.16963e-07 5,2.23858 5,5c0,0 0,3.55271e-15 0,3.55271e-15l1.06581e-14,1.50996e-07c8.33927e-08,0.552285 0.447715,1 1,1c0.552285,-8.33927e-08 1,-0.447715 1,-1v0c0,-3.86599 -3.13401,-7 -7,-7Z"></path>
    </g>
</svg>