<?xml version="1.0" encoding="UTF-8"?>
<svg version="1.1" viewBox="0 0 24 24" xmlns="http://www.w3.org/2000/svg" xmlns:xlink="http://www.w3.org/1999/xlink">
    <!--Generated by IJSVG (https://github.com/iconjar/IJSVG)-->
    <g fill="#FFF">
        <path opacity="0" d="M0,0h24v24h-24Z"></path>
        <path d="M21,6h-1v-1v0c0,-0.552285 -0.447715,-1 -1,-1c-0.552285,0 -1,0.447715 -1,1v1h-1l-4.37114e-08,8.88178e-16c-0.552285,2.41411e-08 -1,0.447715 -1,1c2.41411e-08,0.552285 0.447715,1 1,1h1v1l1.06581e-14,1.50996e-07c8.33927e-08,0.552285 0.447715,1 1,1c0.552285,-8.33927e-08 1,-0.447715 1,-1v-1h1l-4.37114e-08,-8.88178e-16c0.552285,2.41411e-08 1,-0.447715 1,-1c2.41411e-08,-0.552285 -0.447715,-1 -1,-1Z"></path>
        <path d="M10,11l-1.74846e-07,-3.55271e-15c2.20914,9.65645e-08 4,-1.79086 4,-4c9.65645e-08,-2.20914 -1.79086,-4 -4,-4c-2.20914,-9.65645e-08 -4,1.79086 -4,4l4.61853e-14,-6.03983e-07c-3.33571e-07,2.20914 1.79086,4 4,4Zm0,-6l-8.74228e-08,1.77636e-15c1.10457,-4.82823e-08 2,0.89543 2,2c4.82823e-08,1.10457 -0.89543,2 -2,2c-1.10457,4.82823e-08 -2,-0.89543 -2,-2l2.30926e-14,3.01992e-07c-1.66785e-07,-1.10457 0.89543,-2 2,-2Z"></path>
        <path d="M10,13l-3.0598e-07,7.10543e-15c-3.86599,1.68988e-07 -7,3.13401 -7,7c0,0 0,3.55271e-15 0,3.55271e-15l1.06581e-14,1.50996e-07c8.33927e-08,0.552285 0.447715,1 1,1c0.552285,-8.33927e-08 1,-0.447715 1,-1l5.68434e-14,7.54979e-07c-4.16963e-07,-2.76142 2.23858,-5 5,-5c2.76142,-4.16963e-07 5,2.23858 5,5c0,0 0,3.55271e-15 0,3.55271e-15l1.06581e-14,1.50996e-07c8.33927e-08,0.552285 0.447715,1 1,1c0.552285,-8.33927e-08 1,-0.447715 1,-1v0c0,-3.86599 -3.13401,-7 -7,-7Z"></path>
    </g>
</svg>